<?xml version="1.0" encoding="utf-8"?>
<!-- Generator: Adobe Illustrator 27.2.0, SVG Export Plug-In . SVG Version: 6.00 Build 0)  -->
<svg version="1.1" id="Capa_1" xmlns="http://www.w3.org/2000/svg" xmlns:xlink="http://www.w3.org/1999/xlink" x="0px" y="0px"
	 viewBox="0 0 350 150" style="enable-background:new 0 0 350 150;" xml:space="preserve">
<style type="text/css">
	.st0{fill:#FCBF06;}
	.st1{fill:#060B0B;}
</style>
<g>
	<rect class="st0" width="350" height="150"/>
	<path class="st1" d="M170.35,74.36l-5.55-24.31h-16.21l-5.23,24.31l-5-24.31h-18.32l13.69,49.8h17l5.72-24.3l5.87,24.3h17.41
		l14.07-49.8h-18.34L170.35,74.36z M240.83,50.05v49.79h34.12V85h-15.35V50.05H240.83z M205.66,92.26h11.51l1.88,7.58h18.36
		l-15.8-49.8h-20.61l-16.21,49.8h19.16L205.66,92.26z M211.49,66.69l3.12,14.5h-6.39L211.49,66.69z M309.92,42.37H40.07v5.12h269.85
		V42.37z M193.8,50.05L193.8,50.05L193.8,50.05z M309.63,95.7c0-2.34-1.9-4.06-4.12-4.06c-2.25,0-4.14,1.72-4.14,4.06
		c0,2.36,1.9,4.09,4.14,4.09C307.73,99.78,309.63,98.06,309.63,95.7 M302.19,95.7c0-1.93,1.46-3.39,3.33-3.39
		c1.84,0,3.3,1.46,3.3,3.39c0,1.96-1.46,3.41-3.3,3.41C303.65,99.11,302.19,97.66,302.19,95.7 M268.98,50.05v14.08h11.06v35.71
		h18.79V64.14h11.1V50.05H268.98z M307.29,97.73l-1.04-1.57c0.71-0.09,1.19-0.52,1.19-1.37c0-0.72-0.56-1.25-1.7-1.25h-1.8v4.19
		h0.78v-1.5h0.67l0.89,1.5H307.29z M304.71,95.52v-1.35h0.91c0.51,0,1.08,0.03,1.08,0.65c0,0.71-0.46,0.7-1.08,0.7H304.71z
		 M40.09,50.05v49.8h23.24c14.21,0,24.82-7.77,24.82-24.8c0-17.5-10.95-25-24.73-25H40.09z M69.15,74.88
		c0,7.57-3.9,10.05-9.82,10.05h-1.47V64.36h1.51C65.29,64.36,69.15,66.57,69.15,74.88 M119.42,70.96V60.71H92.1v39.14h27.31V89.71
		H106.2v-4.25h11.51V75.21H106.2v-4.25H119.42z M40.07,107.63h269.84v-5.11H40.07V107.63z"/>
</g>
</svg>
