<?xml version="1.0" encoding="UTF-8" standalone="no"?>
<!-- Generator: Adobe Illustrator 19.2.1, SVG Export Plug-In . SVG Version: 6.00 Build 0)  -->

<svg
   version="1.1"
   id="layer"
   x="0px"
   y="0px"
   viewBox="0 0 653.63366 349.39847"
   xml:space="preserve"
   sodipodi:docname="black-and-decker-inc-vector-logo.svg"
   width="653.63367"
   height="349.39847"
   inkscape:version="1.3.2 (1:1.3.2+202311252150+091e20ef0f)"
   xmlns:inkscape="http://www.inkscape.org/namespaces/inkscape"
   xmlns:sodipodi="http://sodipodi.sourceforge.net/DTD/sodipodi-0.dtd"
   xmlns="http://www.w3.org/2000/svg"
   xmlns:svg="http://www.w3.org/2000/svg"><defs
   id="defs2" /><sodipodi:namedview
   id="namedview2"
   pagecolor="#ffffff"
   bordercolor="#000000"
   borderopacity="0.25"
   inkscape:showpageshadow="2"
   inkscape:pageopacity="0.0"
   inkscape:pagecheckerboard="0"
   inkscape:deskcolor="#d1d1d1"
   inkscape:zoom="1.2546012"
   inkscape:cx="326"
   inkscape:cy="242.30807"
   inkscape:window-width="1861"
   inkscape:window-height="1018"
   inkscape:window-x="59"
   inkscape:window-y="25"
   inkscape:window-maximized="1"
   inkscape:current-layer="layer" />
<style
   type="text/css"
   id="style1">
	.st0{fill:#E55302;}
</style>

<g
   id="g2"
   transform="translate(0,-147.41)">
	<path
   class="st0"
   d="m 118.9,248.1 c 0,-5.8 -4.8,-9.3 -13,-9.3 H 87.1 v 18.6 h 18.8 c 8.6,0 13,-3.7 13,-9.3 m 19.3,-3.4 c 0,11.4 -7.6,17.3 -11.6,19.1 4.7,1.4 16.5,6.2 16.5,21.8 0,16.1 -13.1,24.3 -32.9,24.3 H 68.3 v -88 h 40.9 c 19.6,-0.1 29,10.6 29,22.8 m -14.3,38.4 c 0,-5.5 -4.1,-9.7 -14,-9.7 H 87.1 v 19.4 h 22.7 c 8.6,0 14.1,-3.1 14.1,-9.7 m 39.6,-61.3 h 19.4 v 70.4 h 43.7 v 17.6 h -63.1 z m 107.9,-0.6 h 19 l 37.7,88.6 h -21.4 l -8,-19.7 h -37.2 l -8,19.7 h -20.4 z m 21,53 -12.3,-29.8 -12.3,29.8 z M 426.6,221.8 H 446 v 38.5 l 33.2,-38.5 H 505 l -39,42.7 41.2,45.3 H 481.3 L 446,270.1 v 39.7 h -19.4 z m -93,110.4 H 353 v 38.5 l 33.2,-38.5 H 412 l -39,42.7 41.2,45.3 H 388.3 L 353,380.5 v 39.7 h -19.4 z m 198.8,-57.7 h -22.8 v -17.3 h 22.8 v -22.6 h 17.8 v 22.6 H 573 v 17.3 h -22.8 v 22.6 H 532.4 Z M 148.1,376.2 c 0,24.8 -19.1,44 -46.8,44 h -33 v -88 h 33.1 c 27.6,0 46.7,19.2 46.7,44 m -20.2,0 c 0,-15.6 -10.7,-26.5 -26.5,-26.5 H 87.6 v 53.1 h 13.7 c 15.9,-0.1 26.6,-11 26.6,-26.6 m 298.7,-44 h 63.1 v 17.2 h -43.9 v 17.5 h 38.8 v 17.2 H 445.8 V 403 h 44.5 v 17.2 h -63.7 z m -263.1,0 h 63.1 v 17.2 h -43.9 v 17.5 h 38.8 v 17.2 H 182.7 V 403 h 44.5 v 17.2 h -63.7 z m 416.4,28.2 c 0,21.3 -15.7,27.1 -21.9,28.4 l 25.5,31.4 H 559.1 L 536,390.1 h -7.1 v 30.1 h -19.4 v -88 h 37.2 c 21.1,0 33.2,11.8 33.2,28.2 m -19.6,1 c 0,-7.9 -6.1,-11.7 -15.5,-11.7 H 528.9 V 373 h 16.3 c 9.4,0 15.1,-4.2 15.1,-11.6 m -321,14.8 c 0,-22.8 17.8,-45.5 47.6,-45.5 15.4,0 26.9,5.7 28.6,6.5 v 18.7 c -1.6,-1 -11.5,-7.4 -25.6,-7.4 -19.2,0 -30.4,12.7 -30.4,27.7 0,16.4 12.2,27.7 29.2,27.7 11.8,0 20,-5.7 22,-7.1 l 9.3,14.3 c -3.7,3 -13.7,10.6 -34.1,10.6 -27.5,0 -46.6,-21 -46.6,-45.5 m 93,-110.4 c 0,-22.8 17.8,-45.5 47.6,-45.5 15.4,0 26.9,5.7 28.6,6.5 v 18.7 c -1.6,-1 -11.5,-7.4 -25.6,-7.4 -19.2,0 -30.4,12.7 -30.4,27.7 0,16.4 12.2,27.7 29.2,27.7 11.8,0 20,-5.7 22,-7.1 l 9.3,14.3 c -3.7,3 -13.7,10.6 -34.1,10.6 -27.5,0 -46.6,-21 -46.6,-45.5"
   id="path1" />
	<polygon
   class="st0"
   points="632.6,466.4 628.8,466.4 628.8,464.5 638.4,464.5 638.4,466.4 634.7,466.4 634.7,476.3 632.6,476.3 "
   id="polygon1" />
	<polygon
   class="st0"
   points="646.4,473.4 646.3,473.4 642.6,467.9 642.6,476.3 640.6,476.3 640.6,464.5 642.8,464.5 646.4,470.1 650,464.5 652.2,464.5 652.2,476.3 650.1,476.3 650.1,467.8 "
   id="polygon2" />
	<path
   class="st0"
   d="m 578.3,177.7 c 21.4,0 38.8,17.5 38.8,38.8 v 208.9 c 0,21.4 -17.5,38.8 -38.8,38.8 H 63 c -21.4,0 -38.8,-17.5 -38.8,-38.8 V 216.5 c 0,-21.4 17.5,-38.8 38.8,-38.8 h 515.3 m 0,-19.3 H 63 c -32.1,0 -58.2,26.1 -58.2,58.2 v 208.9 c 0,32.1 26.1,58.2 58.2,58.2 h 515.3 c 32.1,0 58.2,-26.1 58.2,-58.2 v -209 c 0,-32 -26.1,-58.1 -58.2,-58.1"
   id="path2" />
</g>
</svg>
